<?xml version="1.0" encoding="UTF-8" standalone="no"?>
<svg
   xmlns:dc="http://purl.org/dc/elements/1.1/"
   xmlns:cc="http://creativecommons.org/ns#"
   xmlns:rdf="http://www.w3.org/1999/02/22-rdf-syntax-ns#"
   xmlns:svg="http://www.w3.org/2000/svg"
   xmlns="http://www.w3.org/2000/svg"
   xmlns:sodipodi="http://sodipodi.sourceforge.net/DTD/sodipodi-0.dtd"
   xmlns:inkscape="http://www.inkscape.org/namespaces/inkscape"
   version="1.0"
   width="450px"
   height="470px"
   viewBox="0 0 4500 4700"
   preserveAspectRatio="xMidYMid meet"
   id="svg3647"
   inkscape:version="0.91 r13725"
   sodipodi:docname="ultimate.svg">
  <metadata
     id="metadata3837">
    <rdf:RDF>
      <cc:Work
         rdf:about="">
        <dc:format>image/svg+xml</dc:format>
        <dc:type
           rdf:resource="http://purl.org/dc/dcmitype/StillImage" />
      </cc:Work>
    </rdf:RDF>
  </metadata>
  <defs
     id="defs3835" />
  <sodipodi:namedview
     pagecolor="#ffffff"
     bordercolor="#666666"
     borderopacity="1"
     objecttolerance="10"
     gridtolerance="10"
     guidetolerance="10"
     inkscape:pageopacity="0"
     inkscape:pageshadow="2"
     inkscape:window-width="1366"
     inkscape:window-height="703"
     id="namedview3833"
     showgrid="false"
     inkscape:zoom="0.71011575"
     inkscape:cx="-39.618261"
     inkscape:cy="374.64835"
     inkscape:window-x="0"
     inkscape:window-y="0"
     inkscape:window-maximized="1"
     inkscape:current-layer="layer1" />
  <g
     id="layer1"
     fill="#030303"
     stroke="none">
    <path
       d="M1941 4092 c-29 -28 -61 -117 -61 -166 0 -28 32 -100 49 -110 9 -6 14 11 26 91 4 24 18 57 31 75 13 18 31 48 39 66 32 67 -30 99 -84 44z"
       id="path3650" />
    <path
       d="M2935 4039 c-51 -45 -61 -71 -74 -185 -6 -56 -15 -114 -21 -129 -15 -39 -12 -91 7 -133 l17 -37 6 90 c4 50 12 100 18 112 26 48 87 67 134 42 11 -6 21 -9 23 -7 2 2 -1 40 -6 86 -8 69 -7 87 6 105 52 74 -38 119 -110 56z"
       id="path3652" />
    <path
       d="M2058 4035 c-4 -16 -17 -46 -31 -66 -32 -47 -40 -104 -22 -154 8 -22 14 -34 15 -27 0 7 11 23 23 36 20 20 25 37 29 102 3 44 2 93 -1 109 l-7 30 -6 -30z"
       id="path3654" />
    <path
       d="M1789 3873 c-76 -81 -79 -88 -79 -184 0 -96 11 -132 44 -146 35 -15 55 -4 95 55 40 60 61 111 61 146 0 23 -68 166 -79 166 -4 0 -23 -17 -42 -37z"
       id="path3656" />
    <path
       d="M2056 3778 c-20 -29 -20 -49 3 -183 34 -194 84 -320 154 -383 28 -26 28 -27 42 45 11 54 -50 281 -112 421 -31 67 -59 122 -64 122 -4 0 -15 -10 -23 -22z"
       id="path3658" />
    <path
       d="M1965 3775 c4 -11 10 -127 15 -257 10 -256 9 -255 75 -451 25 -72 45 -141 45 -151 0 -11 2 -17 5 -15 2 3 0 102 -5 220 -9 213 -9 215 -64 426 -30 116 -59 220 -66 230 -11 17 -11 17 -5 -2z"
       id="path3660" />
    <path
       d="M2960 3771 c0 -13 22 -29 66 -47 l39 -16 -34 36 c-32 33 -71 48 -71 27z"
       id="path3662" />
    <path
       d="M2930 3737 c0 -4 12 -26 27 -50 19 -30 28 -61 33 -109 3 -37 9 -70 12 -74 4 -3 20 5 36 18 16 13 44 31 62 38 32 13 34 13 64 -24 36 -42 46 -39 46 15 0 34 -3 38 -42 54 -23 9 -54 27 -69 40 -16 13 -50 31 -76 41 -26 9 -58 26 -70 37 -13 11 -23 17 -23 14z"
       id="path3664" />
    <path
       d="M2900 3684 c0 -4 7 -54 16 -112 21 -141 53 -204 69 -133 4 20 0 41 -14 67 -12 21 -21 56 -21 77 0 43 -24 107 -39 107 -6 0 -11 -3 -11 -6z"
       id="path3666" />
    <path
       d="M2798 3644 c-15 -14 -8 -61 10 -77 23 -21 39 -22 22 -1 -8 8 -16 31 -19 50 -3 20 -9 32 -13 28z"
       id="path3668" />
    <path
       d="M3083 3505 c-43 -30 -65 -83 -74 -173 -10 -98 -23 -145 -51 -184 l-18 -26 36 10 c20 5 62 7 94 3 55 -6 58 -6 84 26 28 33 28 34 24 158 -3 111 -6 130 -26 164 -26 41 -37 44 -69 22z"
       id="path3670" />
    <path
       d="M3234 3459 c-12 -19 -19 -229 -8 -229 5 0 17 12 28 27 16 22 18 37 13 105 -7 87 -18 120 -33 97z"
       id="path3672" />
    <path
       d="M3238 3223 c-15 -16 -29 -45 -33 -65 -6 -32 -3 -41 20 -64 14 -14 28 -25 29 -23 4 4 15 179 12 179 -1 0 -14 -12 -28 -27z"
       id="path3674" />
    <path
       d="M2134 3115 c3 -71 6 -161 6 -198 0 -64 2 -70 35 -102 33 -34 52 -40 105 -36 65 5 69 98 8 244 -34 82 -53 112 -101 161 l-58 61 5 -130z"
       id="path3676" />
    <path
       d="M3150 3135 c-7 -9 -8 -15 -2 -15 5 0 12 7 16 15 3 8 4 15 2 15 -2 0 -9 -7 -16 -15z"
       id="path3678" />
    <path
       d="M2300 3125 c0 -9 14 -49 32 -88 42 -95 49 -186 19 -244 -22 -43 -36 -53 -81 -53 -42 0 -70 14 -118 59 -34 31 -42 35 -36 18 9 -31 72 -95 116 -118 21 -10 54 -19 74 -19 31 0 45 7 78 43 50 52 64 95 65 208 l1 86 -57 49 c-93 79 -93 79 -93 59z"
       id="path3680" />
    <path
       d="M2937 3066 c-35 -33 -127 -219 -114 -232 2 -2 61 55 132 126 l130 130 -61 0 c-50 0 -66 -4 -87 -24z"
       id="path3682" />
    <path
       d="M2949 2933 c-106 -107 -153 -163 -172 -203 -15 -30 -67 -105 -116 -167 -68 -84 -86 -113 -75 -117 9 -4 34 10 62 33 26 22 94 64 151 95 181 97 272 184 337 321 59 123 54 185 -14 185 -22 0 -57 -30 -173 -147z"
       id="path3684" />
    <path
       d="M3210 2968 c-16 -86 -54 -159 -119 -232 -84 -94 -136 -132 -266 -198 -145 -73 -201 -114 -184 -134 17 -20 27 -18 66 17 28 24 42 29 71 27 34 -3 37 -6 40 -36 3 -27 -1 -35 -17 -39 -12 -3 -18 -9 -15 -14 7 -12 44 -11 80 1 25 9 29 15 29 48 l0 37 76 0 c66 0 81 3 115 27 125 87 204 236 218 414 6 67 5 71 -22 95 -60 55 -58 55 -72 -13z"
       id="path3686" />
    <path
       d="M2496 2958 c-3 -7 -7 -48 -9 -91 -7 -97 -38 -155 -105 -198 -57 -36 -101 -37 -159 -4 l-43 26 0 -23 c0 -45 21 -98 46 -114 32 -21 127 -13 183 16 45 22 103 89 126 143 20 49 44 165 39 191 -4 22 -48 66 -65 66 -5 0 -11 -6 -13 -12z"
       id="path3688" />
    <path
       d="m 2605,2832 c -1,-89 -28,-153 -97,-228 -75,-81 -217,-126 -286,-90 -35,18 -36,17 -22,-34 6,-23 21,-42 41,-54 26,-15 30,-23 25,-46 -3,-18 0,-33 9,-40 102.6186,-19.7129 29.1907,2.3959 22.2611,54.9409 L 2290,2450 l 40,0 40,0 -9.2415,-51.5993 -21.2537,-67.8689 L 2403,2357 c 22,13 31,26 29,39 -2,10 -5,23 -5,28 -1,6 20,15 47,21 38,8 57,20 87,54 46,51 92,131 76,131 -6,0 -1,9 11,20 40,38 55,68 48,101 -6,29 -69,143 -84,153 -4,2 -7,-30 -7,-72 z"
       id="path3690"
       inkscape:connector-curvature="0"
       sodipodi:nodetypes="cccccccsccccccccccscccc" />
    <path
       d="m 3188.5318,2506.7341 c -38,-42 -123.8264,-184.0357 -99.8264,-184.0357 20,0 88.9323,32.6559 101.9323,66.6559 9,23 48.3623,154.6457 46.3623,155.6457 -1,1 -26.4682,-14.2659 -48.4682,-38.2659 z"
       id="path3692"
       inkscape:connector-curvature="0"
       sodipodi:nodetypes="csccc" />
    <path
       d="m 2938,2432 c -28,-3 -41.0411,-102.2535 -27.0411,-125.2535 6,-9 25.0411,79.2535 57.0411,93.2535 23,11 42,21 42,23 0,7 -43,12 -72,9 z"
       id="path3694"
       inkscape:connector-curvature="0"
       sodipodi:nodetypes="cccsc" />
    <path
       d="M3109 2411 c-26 -26 -29 -36 -29 -90 0 -65 1 -67 31 -51 15 8 19 22 19 61 0 44 3 51 28 62 50 22 56 47 11 47 -20 0 -40 -10 -60 -29z"
       id="path3696" />
    <path
       d="m 2270.7918,2436.0117 c 0,-43 42.2082,-106.0117 59.2082,-106.0117 11,0 20,3 21,8 9,85 100.108,96.3565 63.2834,108.8035 -20.8417,7.0446 -143.4916,35.2082 -143.4916,-10.7918 z"
       id="path3698"
       inkscape:connector-curvature="0"
       sodipodi:nodetypes="sscss" />
    <path
       d="m 2460,2420 c -8,-5 -25.9364,-24.447 -21.9364,-28.447 4,-4 120.7997,46.054 129.7997,55.054 18,18 -82.8633,-10.607 -107.8633,-26.607 z"
       id="path3700"
       inkscape:connector-curvature="0"
       sodipodi:nodetypes="cssc" />
    <path
       d="M2535 2410 c-18 -19 -17 -20 2 -20 11 0 28 9 38 20 18 19 17 20 -2 20 -11 0 -28 -9 -38 -20z"
       id="path3702" />
    <path
       d="m 2654.2966,2408.5318 c -29,-22 96.0657,-61.4047 142.0657,-53.4047 26,5 72.0964,68.0116 72.0964,82.0116 0,23 -258.8443,37.2024 -214.1621,-28.6069 z"
       id="path3704"
       inkscape:connector-curvature="0"
       sodipodi:nodetypes="ccsc" />
    <path
       d="M2230 2402 c6 -13 14 -21 18 -18 3 4 -2 14 -12 24 -18 16 -18 16 -6 -6z"
       id="path3706" />
    <path
       d="m 2596.2871,2395.0212 c -3,-5 2.2447,-22.447 11.2447,-22.447 9,0 35.4046,13.7129 32.4046,18.7129 -3,6 -20.6947,0.427 -24.9364,18.7129 -4.4777,19.3033 -15.7129,-8.9788 -18.7129,-14.9788 z"
       id="path3708"
       inkscape:connector-curvature="0"
       sodipodi:nodetypes="cscsc" />
    <path
       d="M1173 2372 c10 -11 15 -26 11 -36 -4 -11 -1 -16 11 -16 12 0 15 -5 11 -16 -6 -14 -4 -15 9 -4 11 9 15 26 13 49 -3 33 -6 36 -38 39 -34 4 -34 3 -17 -16z"
       id="path3710" />
    <path
       d="M3017 2377 c-16 -12 -20 -27 -18 -60 1 -13 8 -17 23 -15 18 2 22 10 23 41 2 43 -5 52 -28 34z"
       id="path3712" />
    <path
       d="M1270 2363 c0 -26 7 -32 31 -26 19 5 27 33 10 33 -5 0 -16 3 -25 6 -11 4 -16 0 -16 -13z"
       id="path3714" />
    <path
       d="m 3151,2362 c -34.7823,-5.7071 -37.9174,-89.0222 -29.3835,-80.5858 55.9511,55.3115 96.0389,141.134 44.3835,95.5858 -2,3 -9,-4 -15,-15 z"
       id="path3716"
       inkscape:connector-curvature="0"
       sodipodi:nodetypes="cscc" />
    <path
       d="M1115 2361 c-73 -21 -168 -149 -215 -288 -38 -115 -39 -153 -2 -193 26 -28 48 -35 101 -32 51 4 187 171 229 282 l10 25 -77 1 c-42 0 -85 2 -96 5 -16 3 -27 -10 -58 -71 -41 -84 -57 -161 -37 -185 11 -13 16 -13 45 5 41 25 48 25 33 0 -7 -11 -28 -27 -47 -36 -31 -15 -35 -15 -50 0 -35 36 -8 178 56 283 18 30 30 59 27 64 -10 16 15 74 38 88 13 8 36 17 52 20 32 7 45 26 24 33 -7 3 -22 2 -33 -1z"
       id="path3718" />
    <path
       d="M1342 2298 l-2 -63 25 28 c39 43 31 97 -14 97 -5 0 -9 -28 -9 -62z"
       id="path3720" />
    <path
       d="m 2985.3535,2433.4671 c -37.2659,14.7611 -98.1994,-118.8447 -68.1994,-137.8447 45,-30 182.0541,-49.1118 182.0541,-28.1118 0,6 46.6481,52.9758 25.6481,52.9758 -39,0 12.2042,38.3745 9.2042,75.3745 134.3016,111.9316 -116.707,46.6062 -148.707,37.6062 z"
       id="path3722"
       inkscape:connector-curvature="0"
       sodipodi:nodetypes="ccsscc" />
    <path
       d="M1420 2321 c0 -11 39 -26 47 -17 8 8 3 12 -24 20 -13 4 -23 3 -23 -3z"
       id="path3724" />
    <path
       d="m 2632,2300 c -18,-16 -39.5106,-23.7765 -51.5106,-23.7765 -32,0 -103.2987,-63.054 -90.2987,-75.054 6,-6 93.9481,4.9576 118.9481,13.9576 32,11 11.8612,40.8729 19.8612,27.8729 6,-12 12,-13 30,-4 16,9 21,21 21,51 0,22 -4,40 -9,40 -4,0 -22,-13 -39,-30 z"
       id="path3726"
       inkscape:connector-curvature="0"
       sodipodi:nodetypes="csccccssc" />
    <path
       d="M2690 2280 c0 -36 -4 -52 -15 -56 -19 -8 -19 -31 -1 -41 8 -4 16 -21 18 -37 2 -16 13 -35 26 -44 22 -14 22 -14 22 32 0 44 1 46 29 46 20 0 30 6 34 20 6 25 -5 32 -38 24 -25 -6 -25 -5 -25 50 0 53 -1 56 -25 56 -23 0 -25 -3 -25 -50z"
       id="path3728" />
    <path
       d="M1240 2301 c-12 -24 -13 -31 -1 -31 5 0 11 11 13 25 6 30 2 32 -12 6z"
       id="path3730" />
    <path
       d="M1303 2309 c-7 -7 -13 -23 -13 -36 0 -13 -6 -32 -12 -43 -11 -17 -10 -22 2 -30 26 -16 41 12 38 69 -2 42 -5 50 -15 40z"
       id="path3732" />
    <path
       d="M2482 2304 c-13 -9 -22 -26 -22 -41 0 -22 2 -24 15 -13 9 7 25 26 36 42 23 32 8 39 -29 12z"
       id="path3734" />
    <path
       d="m 2594,2304 c -18,-14 -18,-15 4,-4 12,6 34.447,14.2447 34.447,16.2447 0,8 -14.9576,14.7129 -38.447,-12.2447 z"
       id="path3736"
       inkscape:connector-curvature="0"
       sodipodi:nodetypes="cssc" />
    <path
       d="M2760 2286 c0 -35 12 -46 43 -38 27 7 20 40 -13 57 l-30 16 0 -35z"
       id="path3738" />
    <path
       d="M1095 2300 c-27 -10 -47 -36 -43 -54 2 -10 16 -3 47 25 42 37 40 47 -4 29z"
       id="path3740" />
    <path
       d="m 2408,2302 c -33,-3 -98.7295,15.8836 -98.7295,-5.1164 0,-17 49.3665,-75.4076 67.3665,-82.4076 -64.9762,-203.3496 88.5274,0.2021 93.5274,41.2021 3,20 97.4145,86.2877 -24.1644,49.3219 -0.9568,-0.2909 -18,-1 -38,-3 z"
       id="path3742"
       inkscape:connector-curvature="0"
       sodipodi:nodetypes="csccsc" />
    <path
       d="M1510 2292 c0 -5 11 -14 25 -20 20 -9 25 -9 25 2 0 8 -7 17 -16 20 -22 8 -34 8 -34 -2z"
       id="path3744" />
    <path
       d="m 2280.9942,2285.4682 c -2,-39 0.1329,-116.7246 21.1329,-138.7246 35,-38 127.8729,20.2564 127.8729,59.2564 0,8 -10,14 -22,14 -33,0 -45,11 -53,48 -8,39 -72.0058,54.4682 -74.0058,17.4682 z"
       id="path3746"
       inkscape:connector-curvature="0"
       sodipodi:nodetypes="ccsscc" />
    <path
       d="M1432 2268 c8 -12 20 -24 26 -26 20 -6 13 27 -7 38 -30 15 -35 12 -19 -12z"
       id="path3748" />
    <path
       d="M2281 2256 c-1 -30 -8 -45 -36 -70 -19 -17 -47 -58 -62 -91 -26 -55 -28 -70 -28 -175 1 -198 44 -309 170 -435 75 -76 173 -151 183 -140 2 2 -9 26 -26 53 -97 158 -158 378 -150 545 3 83 8 103 36 156 l32 61 -25 0 c-38 0 -74 39 -84 90 l-9 45 -1 -39z"
       id="path3750" />
    <path
       d="M1570 2271 c0 -9 50 -41 65 -41 3 0 5 9 5 20 0 11 -6 20 -12 20 -7 0 -23 3 -35 6 -14 4 -23 2 -23 -5z"
       id="path3752" />
    <path
       d="M2840 2256 c0 -14 5 -26 10 -26 6 0 10 9 10 19 0 11 -4 23 -10 26 -6 4 -10 -5 -10 -19z"
       id="path3754" />
    <path
       d="M1160 2258 c-43 -12 -48 -17 -32 -27 21 -13 60 -1 65 20 3 10 4 19 4 18 -1 0 -18 -5 -37 -11z"
       id="path3756" />
    <path
       d="M1510 2222 c0 -34 25 -61 41 -45 16 16 7 44 -18 61 -22 14 -23 13 -23 -16z"
       id="path3758" />
    <path
       d="M1660 2230 c0 -16 26 -40 44 -40 15 0 4 40 -13 50 -27 14 -31 13 -31 -10z"
       id="path3760" />
    <path
       d="M1220 2236 c0 -2 7 -9 15 -16 12 -10 15 -10 15 4 0 9 -7 16 -15 16 -8 0 -15 -2 -15 -4z"
       id="path3762" />
    <path
       d="M1407 2223 c-4 -3 2 -13 14 -21 24 -17 37 -9 19 13 -14 16 -23 19 -33 8z"
       id="path3764" />
    <path
       d="m 2548,2223 c -25,-2 -52,-10 -58,-18 -9,-11 -56.2775,-58.3199 -28.2775,-66.3199 49,-13 158.2775,45.3199 158.2775,71.3199 0,11 -6,19 -12,18 -7,-1 -34,-3 -60,-5 z"
       id="path3766"
       inkscape:connector-curvature="0"
       sodipodi:nodetypes="cccscc" />
    <path
       d="M2901 2211 c-13 -24 -5 -31 36 -31 26 0 33 4 33 19 0 33 -53 43 -69 12z"
       id="path3768" />
    <path
       d="M1080 2206 c-16 -16 -12 -23 18 -33 55 -19 144 1 117 26 -15 13 -123 19 -135 7z"
       id="path3770" />
    <path
       d="m 2818,2195 c -2,-24 13.16,68.5763 -8.84,66.5763 C 2783.16,2258.5763 2760,2156 2760,2109 l 0,-50 47.6186,233.3549 c -35,20 16.7458,-76.7998 19.7458,-55.7998 3,32 -41.4047,106.214 -125.4047,98.214 C 2664.9597,2331.7691 2505,2162 2493,2169 c -18,9 -25,6 -48,-20 -98,-117 -104,-275 -19,-521 47,-136 124,-310 141,-321 6,-4 5,26 -3,76 -25,155 -14,236 53,380 28,59 34,80 25,89 -18,18 -15,33 3,18 20,-17 25,-10 120,172 59,115 69.0212,187.0964 62.0212,201.0964 -9,15 -6.0212,-23.0964 -9.0212,-48.0964 z"
       id="path3772"
       inkscape:connector-curvature="0"
       sodipodi:nodetypes="ccsccccccccccscccc" />
    <path
       d="m 2921.5201,2220.6282 c -5,-26 30.8305,0.3835 14.7034,-9.8189 l -30.0847,9.4682 L 2790,1998 c -49,-94 -90,-174 -90,-178 0,-3 27,-32 59,-63 l 59,-57 60,93 c 71,110 80,127 148,282 56,127 56,127 -3,138 -28,6 -95.4799,31.6282 -101.4799,7.6282 z"
       id="path3774"
       inkscape:connector-curvature="0"
       sodipodi:nodetypes="ccccscccccc" />
    <path
       d="M1571 2193 c3 -32 -1 -44 -11 -38 -16 10 -11 -8 10 -35 11 -14 20 -29 20 -35 0 -5 9 -25 20 -43 l21 -34 21 27 c21 27 54 31 101 10 26 -11 21 8 -16 57 -20 26 -45 47 -65 53 -18 5 -32 14 -32 20 0 10 -45 35 -63 35 -4 0 -7 -8 -6 -17z"
       id="path3776" />
    <path
       d="M1740 2190 c0 -6 7 -13 15 -16 8 -4 15 -16 15 -29 0 -20 27 -55 43 -55 13 0 7 17 -24 63 -29 45 -49 59 -49 37z"
       id="path3778" />
    <path
       d="M1456 2181 c-3 -5 1 -14 10 -21 8 -7 40 -48 70 -92 31 -43 57 -78 59 -78 14 0 -62 140 -90 167 -37 36 -41 38 -49 24z"
       id="path3780" />
    <path
       d="M1810 2063 c0 -26 88 -136 125 -155 19 -11 19 -11 0 18 -70 109 -89 133 -106 137 -10 3 -19 3 -19 0z"
       id="path3782" />
    <path
       d="M1671 1998 c-7 -21 1 -70 27 -162 l8 -29 18 28 c10 15 44 39 77 54 l60 27 -73 52 c-80 57 -104 63 -117 30z"
       id="path3784" />
    <path
       d="M2007 1892 c-55 -48 -103 -96 -109 -106 -8 -14 -2 -27 31 -64 73 -83 157 -217 185 -293 15 -41 44 -107 64 -148 l36 -74 28 60 c22 45 39 65 67 81 21 12 45 22 53 22 8 0 -22 37 -66 83 -127 129 -185 264 -189 442 -1 47 -2 85 -2 85 0 0 -44 -40 -98 -88z"
       id="path3786" />
    <path
       d="M1820 1861 c-70 -38 -108 -88 -80 -106 6 -4 9 -14 6 -23 -2 -10 6 -39 19 -67 l23 -50 1 43 c1 56 22 95 83 158 34 35 46 54 38 59 -11 7 -67 -40 -126 -105 -12 -14 -25 -22 -29 -19 -3 4 22 34 56 68 65 64 67 72 9 42z"
       id="path3788" />
    <path
       d="M2647 1717 c-54 -124 -68 -209 -51 -296 l7 -32 35 58 c19 32 51 78 71 103 21 25 52 66 69 91 l31 46 -57 56 c-32 32 -60 57 -64 57 -3 0 -22 -37 -41 -83z"
       id="path3790" />
    <path
       d="M1841 1703 c-9 -19 -14 -57 -12 -106 1 -27 1 -27 26 -11 23 15 27 15 51 -1 47 -30 110 -104 136 -158 14 -28 33 -87 42 -129 16 -79 43 -145 68 -166 8 -6 32 -15 55 -20 l41 -9 -44 54 c-51 63 -84 125 -121 226 -48 134 -122 251 -197 310 -32 25 -36 26 -45 10z"
       id="path3792" />
    <path
       d="M3077 1598 c-4 -14 -4 -40 -1 -57 5 -25 9 -29 20 -20 17 14 17 35 0 74 l-13 30 -6 -27z"
       id="path3794" />
    <path
       d="M3247 1586 c-74 -38 -137 -86 -137 -102 0 -15 117 -124 133 -124 7 0 39 25 72 55 65 59 50 63 -27 8 -64 -46 -62 -27 7 75 68 101 52 108 -42 17 -72 -69 -96 -82 -68 -37 29 45 67 82 113 109 79 47 39 46 -51 -1z"
       id="path3796" />
    <path
       d="M1857 1543 c-11 -11 -8 -38 7 -58 13 -19 15 -18 39 5 24 23 25 26 10 42 -16 18 -44 24 -56 11z"
       id="path3798" />
    <path
       d="M1933 1468 c-6 -9 7 -27 44 -62 29 -27 53 -45 53 -40 0 5 -14 33 -30 62 -30 52 -49 63 -67 40z"
       id="path3800" />
    <path
       d="M3080 1445 c0 -13 110 -116 119 -111 5 4 -17 31 -48 61 -53 51 -71 63 -71 50z"
       id="path3802" />
    <path
       d="M3046 1399 c-7 -19 -24 -68 -36 -109 -33 -111 -78 -225 -101 -253 -19 -26 -19 -26 1 -32 50 -16 82 35 95 150 7 57 26 95 49 95 18 0 117 64 114 75 -2 5 -26 32 -55 59 l-52 48 -15 -33z"
       id="path3804" />
    <path
       d="M1869 1359 c-16 -34 -29 -63 -27 -65 2 -2 38 -7 79 -10 69 -6 76 -9 111 -45 l37 -39 -13 45 c-22 72 -107 175 -146 175 -5 0 -24 -27 -41 -61z"
       id="path3806" />
    <path
       d="M2340 1322 c-23 -7 -75 -70 -66 -79 2 -3 21 0 43 6 62 18 184 13 255 -9 34 -11 65 -20 68 -20 3 1 -41 23 -97 50 -105 51 -159 65 -203 52z"
       id="path3808" />
    <path
       d="M3083 1229 c-39 -27 -43 -34 -43 -73 0 -24 -6 -64 -14 -89 -8 -27 -10 -47 -5 -47 30 0 71 82 115 228 5 18 -7 14 -53 -19z"
       id="path3810" />
    <path
       d="M1775 1203 c-49 -52 -50 -58 -34 -130 9 -39 8 -58 -4 -101 -17 -55 -8 -112 16 -112 7 0 49 -4 95 -10 89 -10 108 -7 122 19 7 15 5 17 -19 13 -37 -5 -71 13 -71 38 0 11 18 38 41 61 31 31 38 45 33 61 -12 39 -5 96 16 138 12 23 19 44 16 48 -8 7 -92 21 -134 21 -26 1 -41 -8 -77 -46z"
       id="path3812" />
    <path
       d="M2337 1216 c-94 -26 -96 -60 -10 -113 72 -44 107 -53 213 -53 l97 0 -5 58 c-5 66 -14 77 -87 97 -78 22 -155 26 -208 11z"
       id="path3814" />
    <path
       d="M2680 1201 c0 -14 66 -52 105 -61 24 -5 38 -4 45 5 8 10 -6 19 -60 39 -77 28 -90 31 -90 17z"
       id="path3816" />
    <path
       d="M2001 1165 c-21 -31 -22 -41 -16 -102 l7 -68 -41 -33 c-23 -18 -39 -37 -36 -42 3 -4 21 -10 41 -12 40 -5 58 14 94 96 21 45 21 49 -6 174 -6 30 -15 28 -43 -13z"
       id="path3818" />
    <path
       d="M1655 1149 c-14 -18 -24 -38 -21 -46 4 -8 6 -19 6 -25 0 -18 34 18 59 62 22 39 22 40 3 40 -11 0 -32 -14 -47 -31z"
       id="path3820" />
    <path
       d="M2905 1153 c-16 -9 -48 -32 -70 -53 -23 -20 -62 -43 -88 -50 -53 -16 -59 -25 -21 -34 51 -13 112 4 144 40 25 29 76 115 68 114 -2 -1 -16 -8 -33 -17z"
       id="path3822" />
    <path
       d="M2670 1111 c0 -20 4 -41 8 -48 9 -14 51 -6 79 15 20 17 20 17 -33 43 l-54 26 0 -36z"
       id="path3824" />
    <path
       d="M1657 1041 c-33 -37 -57 -92 -57 -134 0 -90 153 -189 268 -173 54 7 87 28 120 76 33 49 27 56 -18 20 -34 -27 -42 -30 -62 -19 -12 7 -56 15 -97 19 -106 11 -114 22 -105 152 5 65 3 98 -3 98 -6 0 -27 -18 -46 -39z"
       id="path3826" />
    <path
       d="M2625 1025 c-5 -2 -32 -7 -60 -11 l-50 -7 40 -8 c22 -4 57 -8 78 -8 35 -1 36 0 25 19 -13 20 -15 21 -33 15z"
       id="path3828" />
  </g>
  <g
     id="layer2"
     fill="#d8d8d8"
     stroke="none" />
</svg>
