<?xml version="1.0" encoding="UTF-8" standalone="no"?>
<!-- Created with Inkscape (http://www.inkscape.org/) -->

<svg
   xmlns:dc="http://purl.org/dc/elements/1.1/"
   xmlns:cc="http://creativecommons.org/ns#"
   xmlns:rdf="http://www.w3.org/1999/02/22-rdf-syntax-ns#"
   xmlns:svg="http://www.w3.org/2000/svg"
   xmlns="http://www.w3.org/2000/svg"
   xmlns:sodipodi="http://sodipodi.sourceforge.net/DTD/sodipodi-0.dtd"
   xmlns:inkscape="http://www.inkscape.org/namespaces/inkscape"
   width="210mm"
   height="297mm"
   viewBox="0 0 744.09448819 1052.3622047"
   id="svg4035"
   version="1.1"
   inkscape:version="0.91 r13725"
   sodipodi:docname="splash.svg">
  <defs
     id="defs4037" />
  <sodipodi:namedview
     id="base"
     pagecolor="#ffffff"
     bordercolor="#666666"
     borderopacity="1.0"
     inkscape:pageopacity="0.0"
     inkscape:pageshadow="2"
     inkscape:zoom="0.35"
     inkscape:cx="-55"
     inkscape:cy="520"
     inkscape:document-units="px"
     inkscape:current-layer="layer1"
     showgrid="false"
     inkscape:window-width="1366"
     inkscape:window-height="703"
     inkscape:window-x="0"
     inkscape:window-y="0"
     inkscape:window-maximized="1" />
  <metadata
     id="metadata4040">
    <rdf:RDF>
      <cc:Work
         rdf:about="">
        <dc:format>image/svg+xml</dc:format>
        <dc:type
           rdf:resource="http://purl.org/dc/dcmitype/StillImage" />
        <dc:title></dc:title>
      </cc:Work>
    </rdf:RDF>
  </metadata>
  <g
     inkscape:label="Layer 1"
     inkscape:groupmode="layer"
     id="layer1">
    <path
       inkscape:connector-curvature="0"
       d="m 318.66368,990.86968 c -7.43456,-8.01884 -15.63821,-33.50732 -15.63821,-47.54028 0,-8.01886 8.20365,-28.63874 12.56183,-31.50261 2.30729,-1.71832 3.5891,3.15025 6.66547,26.06124 1.02546,6.8733 4.61456,16.32408 7.94729,21.47905 3.33274,5.15498 7.94728,13.74659 9.9982,18.90156 8.20364,19.18796 -7.69093,28.35236 -21.53458,12.60104 z"
       id="path3650" />
    <path
       inkscape:connector-curvature="0"
       d="m 573.48952,975.69116 c -13.07457,-12.88743 -15.6382,-20.3335 -18.97093,-52.98165 -1.53819,-16.03769 -3.84548,-32.64815 -5.38366,-36.94397 -3.84546,-11.1691 -3.07636,-26.06123 1.79456,-38.0895 l 4.35818,-10.59633 1.53819,25.77485 c 1.02546,14.31937 3.07637,28.63874 4.61455,32.07538 6.66546,13.74659 22.30366,19.18794 34.35277,12.02826 2.82001,-1.71832 5.38366,-2.57749 5.89638,-2.00471 0.51273,0.57278 -0.25636,11.45549 -1.53818,24.62931 -2.05091,19.76072 -1.79455,24.9157 1.53818,30.07067 13.33094,21.19266 -9.74184,34.08009 -28.20004,16.03769 z"
       id="path3652" />
    <path
       inkscape:connector-curvature="0"
       d="m 348.65828,974.54561 c -1.02547,-4.5822 -4.3582,-13.17382 -7.94729,-18.90156 -8.20366,-13.4602 -10.25457,-29.78429 -5.64001,-44.10364 2.05091,-6.30053 3.5891,-9.73717 3.84546,-7.73247 0,2.00471 2.82001,6.58692 5.89637,10.30994 5.12728,5.72775 6.4091,10.59633 7.43456,29.21152 0.76909,12.60104 0.51273,26.63401 -0.25637,31.21621 l -1.79455,8.59162 -1.53817,-8.59162 z"
       id="path3654" />
    <path
       inkscape:connector-curvature="0"
       d="m 279.69635,928.15086 c -19.48367,-23.19737 -20.25276,-25.20207 -20.25276,-52.69526 0,-27.49317 2.82001,-37.80312 11.28001,-41.81254 8.97275,-4.29582 14.10003,-1.14555 24.3546,15.75131 10.25454,17.18323 15.6382,31.78898 15.6382,41.81254 0,6.5869 -17.43275,47.54028 -20.25276,47.54028 -1.02546,0 -5.89638,-4.86857 -10.76729,-10.59633 z"
       id="path3656" />
    <path
       inkscape:connector-curvature="0"
       d="m 348.14554,900.94408 c -5.12728,-8.30523 -5.12728,-14.03299 0.7691,-52.40888 8.71637,-55.55914 21.53457,-91.64394 39.48006,-109.68634 7.17819,-7.44606 7.17819,-7.73245 10.76729,12.88743 2.81999,15.46491 -12.81821,80.47483 -28.71278,120.56905 -7.94728,19.18796 -15.12548,34.93925 -16.40729,34.93925 -1.02546,0 -3.84547,-2.86388 -5.89638,-6.30051 z"
       id="path3658" />
    <path
       inkscape:connector-curvature="0"
       d="m 324.81642,900.08491 c 1.02545,-3.15026 2.56363,-36.37119 3.84546,-73.60153 2.56363,-73.31515 2.30727,-73.02876 19.2273,-129.16067 6.4091,-20.61989 11.53638,-40.38061 11.53638,-43.24449 0,-3.15026 0.51273,-4.86857 1.28183,-4.29581 0.51272,0.85916 0,29.21151 -1.28183,63.00522 -2.30728,61.00049 -2.30728,61.57326 -16.4073,122.00098 -7.69092,33.22093 -15.12547,63.0052 -16.92003,65.86908 -2.82,4.86858 -2.82,4.86858 -1.28181,-0.57278 z"
       id="path3660" />
    <path
       inkscape:connector-curvature="0"
       d="m 579.89861,898.93936 c 0,-3.72304 5.64002,-8.30523 16.92003,-13.4602 l 9.9982,-4.58219 -8.71637,10.30994 c -8.20366,9.45078 -18.20186,13.74658 -18.20186,7.73245 z"
       id="path3662" />
    <path
       inkscape:connector-curvature="0"
       d="m 572.2077,889.2022 c 0,-1.14555 3.07637,-7.44607 6.92183,-14.31937 4.87092,-8.59162 7.17819,-17.46962 8.46001,-31.21622 0.76909,-10.59633 2.30727,-20.04711 3.07636,-21.19266 1.02546,-0.85916 5.12728,1.43194 9.22911,5.15498 4.10182,3.72303 11.28001,8.878 15.89457,10.88272 8.20365,3.72302 8.71638,3.72302 16.40731,-6.87331 9.2291,-12.02826 11.79273,-11.1691 11.79273,4.29582 0,9.73717 -0.76909,10.88272 -10.76729,15.46491 -5.89636,2.57748 -13.84365,7.73246 -17.68911,11.45549 -4.10183,3.72304 -12.81821,8.878 -19.48366,11.74188 -6.66547,2.57749 -14.86912,7.44608 -17.94549,10.59633 -3.33274,3.15026 -5.89637,4.86859 -5.89637,4.00943 z"
       id="path3664" />
    <path
       inkscape:connector-curvature="0"
       d="m 564.51677,874.02366 c 0,-1.14555 1.79455,-15.4649 4.10184,-32.07537 5.38364,-40.38061 13.58729,-58.42301 17.68911,-38.08951 1.02546,5.72774 0,11.74188 -3.5891,19.18795 -3.07637,6.01414 -5.38364,16.03769 -5.38364,22.05182 0,12.31466 -6.15274,30.64344 -9.9982,30.64344 -1.53818,0 -2.82001,-0.85916 -2.82001,-1.71833 z"
       id="path3666" />
    <path
       inkscape:connector-curvature="0"
       d="m 538.36764,862.56817 c -3.84545,-4.00941 -2.05091,-17.46962 2.56365,-22.05182 5.89637,-6.01413 9.9982,-6.30052 5.64001,-0.28639 -2.05091,2.2911 -4.10182,8.87802 -4.87092,14.31937 -0.76909,5.72775 -2.30727,9.16439 -3.33274,8.01884 z"
       id="path3668" />
    <path
       inkscape:connector-curvature="0"
       d="m 611.43139,822.76034 c -11.02365,-8.59162 -16.66366,-23.77015 -18.97093,-49.545 -2.56365,-28.06596 -5.89638,-41.52615 -13.07457,-52.69526 l -4.61456,-7.44608 9.22912,2.86388 c 5.12728,1.43194 15.89456,2.00471 24.09822,0.85916 14.10002,-1.71833 14.8691,-1.71833 21.53457,7.44607 7.17819,9.45079 7.17819,9.73718 6.15274,45.24919 -0.7691,31.78899 -1.53818,37.23036 -6.66547,46.96752 -6.66546,11.74189 -9.48547,12.60105 -17.68912,6.30052 z"
       id="path3670" />
    <path
       inkscape:connector-curvature="0"
       d="m 650.14236,809.58652 c -3.07637,-5.44135 -4.87092,-65.58268 -2.05091,-65.58268 1.28181,0 4.35818,3.43664 7.17819,7.73245 4.10182,6.30052 4.61456,10.59633 3.33274,30.07067 -1.79455,24.9157 -4.61456,34.36648 -8.46002,27.77956 z"
       id="path3672" />
    <path
       inkscape:connector-curvature="0"
       d="m 651.16781,741.99913 c -3.84546,-4.5822 -7.43455,-12.88743 -8.46,-18.61517 -1.53819,-9.16441 -0.7691,-11.74188 5.12728,-18.3288 3.5891,-4.00941 7.17819,-7.15968 7.43455,-6.5869 1.02545,1.14555 3.84546,51.26332 3.07637,51.26332 -0.25637,0 -3.58909,-3.43665 -7.1782,-7.73245 z"
       id="path3674" />
    <path
       inkscape:connector-curvature="0"
       d="m 368.14194,711.0693 c 0.76908,-20.3335 1.53818,-46.10836 1.53818,-56.70469 0,-18.32878 0.51273,-20.04711 8.97274,-29.2115 8.46002,-9.73717 13.33094,-11.45549 26.91822,-10.30994 16.66366,1.43194 17.68913,28.06595 2.05092,69.87849 -8.71638,23.48376 -13.58729,32.07538 -25.89277,46.10836 l -14.86912,17.46962 1.28183,-37.23034 z"
       id="path3676" />
    <path
       inkscape:connector-curvature="0"
       d="m 628.60778,716.79704 c -1.79455,-2.57749 -2.05091,-4.2958 -0.51273,-4.2958 1.28183,0 3.07637,2.0047 4.10184,4.2958 0.76908,2.2911 1.02544,4.29582 0.51272,4.29582 -0.51272,0 -2.30729,-2.00472 -4.10183,-4.29582 z"
       id="path3678" />
    <path
       inkscape:connector-curvature="0"
       d="m 410.69836,713.93316 c 0,-2.57747 3.58909,-14.03296 8.20365,-25.20207 10.76729,-27.2068 12.56183,-53.26804 4.87092,-69.87851 -5.64001,-12.31464 -9.2291,-15.17852 -20.76549,-15.17852 -10.76728,0 -17.94547,4.00942 -30.25096,16.89685 -8.71637,8.878 -10.76728,10.02355 -9.2291,5.15498 2.30727,-8.87801 18.45822,-27.2068 29.73823,-33.79371 5.38364,-2.86387 13.84365,-5.44136 18.97093,-5.44136 7.94729,0 11.53639,2.00471 19.9964,12.31465 12.8182,14.89215 16.40729,27.2068 16.66367,59.56857 l 0.25636,24.6293 -14.61276,14.03298 c -23.84185,22.6246 -23.84185,22.6246 -23.84185,16.89684 z"
       id="path3680" />
    <path
       inkscape:connector-curvature="0"
       d="m 574.00225,697.03632 c -8.97274,-9.45078 -32.55824,-62.71882 -29.2255,-66.44186 0.51272,-0.57277 15.6382,15.75131 33.84006,36.08481 l 33.32731,37.23034 -15.6382,0 c -12.81821,0 -16.92003,-1.14555 -22.30367,-6.87329 z"
       id="path3682" />
    <path
       inkscape:connector-curvature="0"
       d="m 577.07862,658.94681 c -27.17459,-30.64343 -39.2237,-46.68113 -44.09462,-58.13662 -3.84546,-8.59162 -17.17639,-30.07067 -29.73822,-47.82667 -17.43276,-24.05654 -22.04731,-32.36177 -19.2273,-33.50732 2.30727,-1.14555 8.71637,2.86388 15.89456,9.45078 6.66547,6.30051 24.09822,18.32878 38.71097,27.20679 46.40189,27.77957 69.73102,52.69526 86.39467,91.93033 15.12548,35.22562 13.84366,52.98165 -3.58909,52.98165 -5.64001,0 -14.61275,-8.59163 -44.35097,-42.09894 z"
       id="path3684" />
    <path
       inkscape:connector-curvature="0"
       d="m 643.98962,668.97037 c -4.10182,-24.62931 -13.84366,-45.53558 -30.50731,-66.44186 -21.53459,-26.9204 -34.8655,-37.80311 -68.19284,-56.70469 -37.17277,-20.90627 -51.52917,-32.64815 -47.17097,-38.37589 4.35818,-5.72774 6.92182,-5.15498 16.92002,4.86858 7.17819,6.8733 10.76729,8.30524 18.20184,7.73246 8.71638,-0.85916 9.48548,-1.71832 10.25456,-10.30994 0.7691,-7.73246 -0.25636,-10.02355 -4.35818,-11.1691 -3.07637,-0.85917 -4.61455,-2.57749 -3.84547,-4.00943 1.79456,-3.43664 11.28003,-3.15026 20.50913,0.28639 6.4091,2.57749 7.43456,4.29581 7.43456,13.74659 l 0,10.59633 19.48366,0 c 16.92003,0 20.76549,0.85916 29.48187,7.73246 32.04549,24.91569 52.29825,67.5874 55.88735,118.56434 1.53818,19.18794 1.28182,20.33349 -5.64001,27.20679 -15.38184,15.7513 -14.86912,15.7513 -18.45821,-3.72303 z"
       id="path3686" />
    <path
       inkscape:connector-curvature="0"
       d="m 460.94571,666.10649 c -0.76909,-2.00471 -1.79455,-13.74659 -2.30728,-26.06125 -1.79454,-27.77956 -9.74182,-44.39002 -26.91821,-56.70467 -14.61276,-10.30995 -25.89277,-10.59633 -40.76189,-1.14555 l -11.02364,7.44606 0,-6.5869 c 0,-12.88743 5.38364,-28.06596 11.79273,-32.64815 8.20365,-6.01414 32.55823,-3.72304 46.91463,4.58219 11.53637,6.30052 26.40549,25.48847 32.30186,40.95339 5.12728,14.03297 11.28002,47.2539 9.9982,54.69996 -1.02547,6.30053 -12.30548,18.90157 -16.66367,18.90157 -1.28181,0 -2.82,-1.71832 -3.33273,-3.43665 z"
       id="path3688" />
    <path
       d="m 488.8894,630.02169 c -0.25638,-25.48846 -7.17821,-43.81725 -24.86732,-65.29629 -19.2273,-23.19738 -55.63099,-36.08481 -73.32011,-25.77487 -8.97274,5.15497 -9.2291,4.86859 -5.64,-9.73716 1.53817,-6.58691 5.38364,-12.02827 10.51092,-15.46492 6.66547,-4.29581 7.69092,-6.58691 6.40909,-13.17381 -0.76908,-5.15498 0,-9.45078 2.30729,-11.45549 26.3077,-5.64553 7.48344,0.68614 5.70693,15.73437 l -1.86148,15.76823 10.25457,0 10.25456,0 -2.36919,-14.77738 -5.44869,-19.4368 16.27789,7.58015 c 5.64001,3.72304 7.94728,7.44608 7.43455,11.16911 -0.51272,2.86388 -1.28182,6.58692 -1.28182,8.01884 -0.25636,1.71833 5.12728,4.29582 12.04911,6.01414 9.74184,2.2911 14.61276,5.72774 22.30367,15.46491 11.79275,14.60576 23.5855,37.51674 19.48366,37.51674 -1.53818,0 -0.25636,2.57749 2.82001,5.72774 10.25457,10.88272 14.10002,19.47434 12.30547,28.92513 -1.53818,8.30523 -17.68911,40.95338 -21.53457,43.81724 -1.02546,0.57278 -1.79454,-8.59161 -1.79454,-20.61988 z"
       id="path3690"
       inkscape:connector-curvature="0"
       sodipodi:nodetypes="cccccccsccccccccccscccc" />
    <path
       d="m 638.48595,536.86968 c -9.74184,-12.02827 -31.74463,-52.7055 -25.5919,-52.7055 5.12728,0 22.79905,9.35223 26.13178,19.08941 2.30727,6.58691 12.39836,44.28856 11.88562,44.57495 -0.25636,0.28639 -6.7855,-4.08557 -12.4255,-10.95886 z"
       id="path3692"
       inkscape:connector-curvature="0"
       sodipodi:nodetypes="csccc" />
    <path
       d="m 574.25861,515.46677 c -7.17819,-0.85916 -10.52146,-29.2841 -6.93237,-35.87101 1.53819,-2.57749 6.41965,22.69719 14.62328,26.70662 5.89639,3.15026 10.7673,6.01413 10.7673,6.5869 0,2.00472 -11.02366,3.43666 -18.45821,2.57749 z"
       id="path3694"
       inkscape:connector-curvature="0"
       sodipodi:nodetypes="cccsc" />
    <path
       inkscape:connector-curvature="0"
       d="m 618.09685,509.45264 c -6.66546,-7.44607 -7.43455,-10.30994 -7.43455,-25.77486 0,-18.61517 0.25636,-19.18794 7.94729,-14.60574 3.84546,2.29109 4.87091,6.30051 4.87091,17.46962 0,12.60104 0.7691,14.60576 7.1782,17.75601 12.8182,6.30053 14.35638,13.4602 2.82,13.4602 -5.12729,0 -10.25457,-2.86387 -15.38185,-8.30523 z"
       id="path3696" />
    <path
       d="m 403.21042,516.61567 c 0,-12.31466 10.82067,-30.3604 15.17887,-30.3604 2.81999,0 5.12728,0.85916 5.38364,2.2911 2.30727,24.34291 25.66409,27.59528 16.22358,31.15994 -5.34306,2.01749 -36.78609,10.08318 -36.78609,-3.09064 z"
       id="path3698"
       inkscape:connector-curvature="0"
       sodipodi:nodetypes="sscss" />
    <path
       d="m 451.71661,512.03013 c -2.05091,-1.43193 -6.64916,-7.00132 -5.6237,-8.14687 1.02544,-1.14555 30.9687,13.18929 33.27597,15.76678 4.61455,5.15497 -21.24317,-3.03772 -27.65227,-7.61991 z"
       id="path3700"
       inkscape:connector-curvature="0"
       sodipodi:nodetypes="cssc" />
    <path
       inkscape:connector-curvature="0"
       d="m 470.94391,509.16626 c -4.61455,-5.44137 -4.35819,-5.72776 0.51273,-5.72776 2.82,0 7.17819,2.57749 9.74183,5.72776 4.61455,5.44135 4.35819,5.72774 -0.51273,5.72774 -2.82001,0 -7.17819,-2.57749 -9.74183,-5.72774 z"
       id="path3702" />
    <path
       d="m 501.52727,508.74578 c -7.43456,-6.30051 24.62778,-17.58553 36.42053,-15.29443 6.66547,1.43194 18.48292,19.47766 18.48292,23.48709 0,6.5869 -66.35836,10.65429 -54.90345,-8.19266 z"
       id="path3704"
       inkscape:connector-curvature="0"
       sodipodi:nodetypes="ccsc" />
    <path
       inkscape:connector-curvature="0"
       d="m 392.75288,506.87516 c 1.53819,-3.72304 3.5891,-6.01413 4.61456,-5.15497 0.76908,1.14554 -0.51274,4.00942 -3.07637,6.87329 -4.61456,4.58219 -4.61456,4.58219 -1.53819,-1.71832 z"
       id="path3706" />
    <path
       d="m 486.65572,504.87652 c -0.7691,-1.43194 0.57546,-6.42853 2.88273,-6.42853 2.30728,0 9.07646,3.92719 8.30738,5.35913 -0.76909,1.71833 -5.30538,0.12229 -6.3928,5.35914 -1.14792,5.52821 -4.02823,-2.57142 -4.79731,-4.28974 z"
       id="path3708"
       inkscape:connector-curvature="0"
       sodipodi:nodetypes="cscsc" />
    <path
       inkscape:connector-curvature="0"
       d="m 121.77611,498.28354 c 2.56364,-3.15026 3.84547,-7.44607 2.82,-10.30994 -1.02546,-3.15027 -0.25636,-4.58221 2.82001,-4.58221 3.07636,0 3.84546,-1.43193 2.82,-4.58218 -1.53819,-4.00943 -1.02545,-4.29582 2.30728,-1.14555 2.82,2.57748 3.84546,7.44606 3.33272,14.03296 -0.76908,9.4508 -1.53817,10.30995 -9.74182,11.16911 -8.71638,1.14555 -8.71638,0.85916 -4.35819,-4.58219 z"
       id="path3710" />
    <path
       inkscape:connector-curvature="0"
       d="m 594.51137,499.71548 c -4.10183,-3.43665 -5.12728,-7.73247 -4.61456,-17.18325 0.25637,-3.72302 2.05091,-4.86857 5.89637,-4.2958 4.61456,0.57278 5.64002,2.86386 5.89638,11.74188 0.51273,12.31464 -1.28182,14.89213 -7.17819,9.73717 z"
       id="path3712" />
    <path
       inkscape:connector-curvature="0"
       d="m 146.64342,495.70605 c 0,-7.44606 1.79455,-9.16439 7.94728,-7.44606 4.87092,1.43193 6.92183,9.45077 2.56365,9.45077 -1.28183,0 -4.10184,0.85917 -6.40911,1.71833 -2.82001,1.14555 -4.10182,0 -4.10182,-3.72304 z"
       id="path3714" />
    <path
       d="m 628.86415,495.41966 c -8.91694,-1.63443 -9.72066,-25.49483 -7.53287,-23.07875 14.34385,15.84052 24.62091,40.41899 11.37833,27.37457 -0.51272,0.85916 -2.30729,-1.14555 -3.84546,-4.29582 z"
       id="path3716"
       inkscape:connector-curvature="0"
       sodipodi:nodetypes="cscc" />
    <path
       inkscape:connector-curvature="0"
       d="M 106.907,495.13328 C 88.192422,489.11915 63.83784,452.46157 51.788732,412.65374 42.046898,379.7192 41.790535,368.83648 51.276004,357.38099 c 6.665463,-8.01884 12.305473,-10.02356 25.892765,-9.16439 13.074566,1.14555 47.940071,48.97222 58.707351,80.76121 l 2.56365,7.15969 -19.74003,0.28639 c -10.76729,0 -21.790942,0.57277 -24.610945,1.43193 -4.101825,0.85915 -6.921829,-2.86387 -14.869114,-20.33351 -10.510925,-24.05652 -14.612748,-46.10834 -9.485469,-52.98165 2.820005,-3.72302 4.101825,-3.72302 11.536382,1.43194 10.510925,7.15969 12.305473,7.15969 8.460013,0 -1.794548,-3.15025 -7.178194,-7.73245 -12.04911,-10.30994 -7.947285,-4.2958 -8.972741,-4.2958 -12.818201,0 -8.972741,10.30994 -2.050912,50.97694 14.356385,81.04761 4.614553,8.59162 7.690922,16.89685 6.921829,18.32879 -2.563641,4.58219 3.84546,21.19266 9.741834,25.20208 3.332732,2.29109 9.229106,4.86858 13.330926,5.72774 8.20365,2.00472 11.53638,7.44607 6.15274,9.45078 -1.79455,0.85917 -5.64001,0.57278 -8.46001,-0.28638 z"
       id="path3718" />
    <path
       inkscape:connector-curvature="0"
       d="m 165.10162,477.09088 -0.51272,-18.0424 6.4091,8.01885 c 9.9982,12.31465 7.94728,27.77956 -3.58909,27.77956 -1.28182,0 -2.30729,-8.01884 -2.30729,-17.75601 z"
       id="path3720" />
    <path
       d="m 586.39834,515.88694 c -9.55364,4.22738 -25.17478,-34.03562 -17.48387,-39.47698 11.53639,-8.59162 46.67212,-14.06499 46.67212,-8.05086 0,1.71833 11.95889,15.17159 6.57525,15.17159 -9.9982,0 3.12871,10.98998 2.35963,21.58631 34.43009,32.05579 -29.91947,13.34741 -38.12313,10.76994 z"
       id="path3722"
       inkscape:connector-curvature="0"
       sodipodi:nodetypes="ccsscc" />
    <path
       inkscape:connector-curvature="0"
       d="m 185.09802,483.67778 c 0,-3.15025 9.9982,-7.44606 12.04911,-4.86857 2.05091,2.29108 0.76909,3.43663 -6.15274,5.72774 -3.33273,1.14555 -5.89637,0.85916 -5.89637,-0.85917 z"
       id="path3724" />
    <path
       d="m 495.81122,477.66366 c -4.61455,-4.58221 -10.1291,-6.8093 -13.20546,-6.8093 -8.20365,0 -26.48208,-18.05787 -23.14935,-21.4945 1.53819,-1.71833 24.08492,1.41979 30.49402,3.99728 8.20365,3.15025 3.04078,11.70547 5.09169,7.98243 1.53819,-3.43664 3.07638,-3.72302 7.69093,-1.14555 4.10182,2.57749 5.38365,6.01414 5.38365,14.60576 0,6.30051 -1.02547,11.45549 -2.30729,11.45549 -1.02545,0 -5.64,-3.72304 -9.99819,-8.59161 z"
       id="path3726"
       inkscape:connector-curvature="0"
       sodipodi:nodetypes="csccccssc" />
    <path
       inkscape:connector-curvature="0"
       d="m 510.68033,471.9359 c 0,-10.30994 -1.02545,-14.89213 -3.84546,-16.03768 -4.87092,-2.2911 -4.87092,-8.878 -0.25636,-11.74188 2.05091,-1.14555 4.10182,-6.01413 4.61456,-10.59633 0.51272,-4.5822 3.33272,-10.02355 6.66545,-12.60104 5.64002,-4.00942 5.64002,-4.00942 5.64002,9.16439 0,12.60104 0.25636,13.17382 7.43455,13.17382 5.12728,0 7.69092,1.71832 8.71638,5.72774 1.53818,7.15969 -1.28183,9.1644 -9.74184,6.8733 -6.40909,-1.71833 -6.40909,-1.43194 -6.40909,14.31936 0,15.17853 -0.25638,16.03769 -6.40911,16.03769 -5.89636,0 -6.4091,-0.85916 -6.4091,-14.31937 z"
       id="path3728" />
    <path
       inkscape:connector-curvature="0"
       d="m 138.9525,477.95004 c -3.07638,-6.8733 -3.33274,-8.878 -0.25637,-8.878 1.28183,0 2.82001,3.15025 3.33274,7.15968 1.53818,8.59161 0.51272,9.16439 -3.07637,1.71832 z"
       id="path3730" />
    <path
       inkscape:connector-curvature="0"
       d="m 155.10344,480.24114 c -1.79455,-2.00471 -3.33274,-6.58691 -3.33274,-10.30994 0,-3.72304 -1.53818,-9.1644 -3.07637,-12.31465 -2.82001,-4.86859 -2.56364,-6.30053 0.51273,-8.59163 6.66546,-4.58219 10.51092,3.43665 9.74184,19.76073 -0.51273,12.02826 -1.28183,14.31936 -3.84546,11.45549 z"
       id="path3732" />
    <path
       inkscape:connector-curvature="0"
       d="m 457.35661,478.80921 c -3.33273,-2.57749 -5.64,-7.44608 -5.64,-11.74188 0,-6.30053 0.51272,-6.87331 3.84545,-3.72304 2.30729,2.00471 6.40911,7.44606 9.22912,12.02826 5.89636,9.1644 2.05091,11.16911 -7.43457,3.43666 z"
       id="path3734" />
    <path
       d="m 486.06939,478.80921 c -4.61456,-4.00943 -4.61456,-4.29582 1.02546,-1.14555 3.07636,1.71832 8.83096,4.07949 8.83096,4.65227 0,2.2911 -3.83459,4.21358 -9.85642,-3.50672 z"
       id="path3736"
       inkscape:connector-curvature="0"
       sodipodi:nodetypes="cssc" />
    <path
       inkscape:connector-curvature="0"
       d="m 528.62582,473.65423 c 0,-10.02356 3.07636,-13.17382 11.02365,-10.88272 6.92183,2.00471 5.12728,11.45549 -3.33274,16.32408 l -7.69091,4.58219 0,-10.02355 z"
       id="path3738" />
    <path
       inkscape:connector-curvature="0"
       d="m 101.77972,477.66366 c -6.921832,-2.86388 -12.049113,-10.30995 -11.023657,-15.46492 0.512728,-2.86387 4.101825,-0.85917 12.049107,7.15969 10.76729,10.59633 10.25456,13.46019 -1.02545,8.30523 z"
       id="path3740" />
    <path
       d="m 438.38567,478.23643 c -8.46,-0.85916 -25.31068,4.54886 -25.31068,-1.46528 0,-4.86857 12.6558,-21.59578 17.27034,-23.60049 -16.65756,-58.23674 22.69524,0.0579 23.97707,11.79976 0.76908,5.72775 24.97357,24.7117 -6.19489,14.12517 -0.24534,-0.0833 -4.61456,-0.28638 -9.74184,-0.85916 z"
       id="path3742"
       inkscape:connector-curvature="0"
       sodipodi:nodetypes="csccsc" />
    <path
       inkscape:connector-curvature="0"
       d="m 208.17078,475.37255 c 0,-1.43193 2.82001,-4.00942 6.40911,-5.72774 5.12728,-2.57748 6.4091,-2.57748 6.4091,0.57277 0,2.2911 -1.79455,4.86859 -4.10183,5.72775 -5.64001,2.2911 -8.71638,2.2911 -8.71638,-0.57278 z"
       id="path3744" />
    <path
       d="m 405.82596,473.50193 c -0.51272,-11.16911 0.0341,-33.42845 5.41772,-39.72896 8.97274,-10.88272 32.78201,5.80117 32.78201,16.97027 0,2.2911 -2.56365,4.00943 -5.64002,4.00943 -8.46,0 -11.53637,3.15026 -13.58728,13.74659 -2.05092,11.16911 -18.4597,15.599 -18.97243,5.00267 z"
       id="path3746"
       inkscape:connector-curvature="0"
       sodipodi:nodetypes="ccsscc" />
    <path
       inkscape:connector-curvature="0"
       d="m 188.1744,468.49926 c 2.0509,-3.43665 5.12728,-6.8733 6.66546,-7.44608 5.12728,-1.71831 3.33274,7.73247 -1.79455,10.88272 -7.69092,4.29582 -8.97275,3.43665 -4.87091,-3.43664 z"
       id="path3748" />
    <path
       inkscape:connector-curvature="0"
       d="m 405.82745,465.06261 c -0.25637,-8.59161 -2.05092,-12.88743 -9.22911,-20.04711 -4.87092,-4.86859 -12.04911,-16.61047 -15.89457,-26.06125 -6.66546,-15.75129 -7.17819,-20.04711 -7.17819,-50.11777 0.25636,-56.70469 11.28001,-88.49368 43.58188,-124.57847 19.2273,-21.76544 44.35098,-43.24448 46.91462,-40.09422 0.51273,0.57278 -2.30727,7.44607 -6.66547,15.17852 -24.8673,45.2492 -40.50551,108.2544 -38.4546,156.08107 0.7691,23.77015 2.05091,29.4979 9.2291,44.67642 l 8.20365,17.46964 -6.40909,0 c -9.74184,0 -18.97094,11.1691 -21.53458,25.77485 l -2.30728,12.88743 -0.25636,-11.16911 z"
       id="path3750" />
    <path
       inkscape:connector-curvature="0"
       d="m 223.55262,469.35843 c 0,-2.57749 12.81821,-11.74188 16.66367,-11.74188 0.76909,0 1.28182,2.57747 1.28182,5.72774 0,3.15026 -1.53818,5.72775 -3.07637,5.72775 -1.79454,0 -5.89638,0.85916 -8.97274,1.71831 -3.58909,1.14555 -5.89638,0.57278 -5.89638,-1.43192 z"
       id="path3752" />
    <path
       inkscape:connector-curvature="0"
       d="m 549.13493,465.06261 c 0,-4.00943 1.28182,-7.44606 2.56365,-7.44606 1.53818,0 2.56363,2.57747 2.56363,5.44135 0,3.15026 -1.02545,6.58691 -2.56363,7.44606 -1.53819,1.14555 -2.56365,-1.43192 -2.56365,-5.44135 z"
       id="path3754" />
    <path
       inkscape:connector-curvature="0"
       d="m 118.44338,465.63539 c -11.02366,-3.43665 -12.30548,-4.86859 -8.20365,-7.73246 5.38364,-3.72304 15.38185,-0.28638 16.66366,5.72774 0.7691,2.86388 1.02546,5.44137 1.02546,5.15498 -0.25636,0 -4.61456,-1.43194 -9.48547,-3.15026 z"
       id="path3756" />
    <path
       inkscape:connector-curvature="0"
       d="m 208.17078,455.32544 c 0,-9.73716 6.40911,-17.46962 10.51092,-12.88743 4.10184,4.58221 1.79455,12.60105 -4.61454,17.46962 -5.64002,4.00943 -5.89638,3.72304 -5.89638,-4.58219 z"
       id="path3758" />
    <path
       inkscape:connector-curvature="0"
       d="m 246.6254,457.61655 c 0,-4.58221 6.66545,-11.4555 11.28,-11.4555 3.84546,0 1.02547,11.4555 -3.33273,14.31936 -6.92183,4.00943 -7.94727,3.72304 -7.94727,-2.86386 z"
       id="path3760" />
    <path
       inkscape:connector-curvature="0"
       d="m 133.82521,459.33487 c 0,-0.57277 1.79455,-2.57749 3.84548,-4.5822 3.07635,-2.86388 3.84545,-2.86388 3.84545,1.14555 0,2.57749 -1.79454,4.58219 -3.84545,4.58219 -2.05093,0 -3.84548,-0.57278 -3.84548,-1.14554 z"
       id="path3762" />
    <path
       inkscape:connector-curvature="0"
       d="m 181.76529,455.61183 c -1.02546,-0.85916 0.51272,-3.72304 3.5891,-6.01414 6.15274,-4.86858 9.48547,-2.57747 4.87091,3.72304 -3.58909,4.5822 -5.89636,5.44137 -8.46001,2.2911 z"
       id="path3764" />
    <path
       d="m 474.27664,455.61183 c -6.40911,-0.57277 -13.33093,-2.86387 -14.86911,-5.15498 -2.30728,-3.15025 -14.42753,-16.70206 -7.24934,-18.99317 12.56184,-3.72303 40.57666,12.97905 40.57666,20.42511 0,3.15027 -1.53818,5.44137 -3.07637,5.15498 -1.79455,-0.28639 -8.71637,-0.85916 -15.38184,-1.43194 z"
       id="path3766"
       inkscape:connector-curvature="0"
       sodipodi:nodetypes="cccscc" />
    <path
       inkscape:connector-curvature="0"
       d="m 564.77315,452.17518 c -3.33274,-6.87329 -1.28183,-8.878 9.2291,-8.878 6.66546,0 8.46001,1.14555 8.46001,5.44136 0,9.45078 -13.58729,12.31464 -17.68911,3.43664 z"
       id="path3768" />
    <path
       inkscape:connector-curvature="0"
       d="m 97.934255,450.74324 c -4.101824,-4.58219 -3.076367,-6.5869 4.614555,-9.45078 14.10002,-5.44135 36.91642,0.28639 29.99459,7.44608 -3.84547,3.72303 -31.53278,5.44135 -34.609145,2.0047 z"
       id="path3770" />
    <path
       d="m 543.49492,447.59299 c -0.51272,-6.8733 3.37376,19.63938 -2.26624,19.0666 -6.66547,-0.85916 -12.60286,-30.2357 -12.60286,-43.69591 l 0,-14.31937 12.20769,66.82988 c -8.97274,5.72774 4.29302,-21.99448 5.06211,-15.98035 0.7691,9.16439 -10.61467,30.41834 -32.14925,28.12724 -9.48547,-0.85916 -50.49338,-49.47887 -53.56975,-47.47417 -4.61456,2.57749 -6.40911,1.71833 -12.30547,-5.72774 -25.12368,-33.50731 -26.66187,-78.75651 -4.87092,-149.20778 12.04911,-38.94867 31.78913,-88.78007 36.14733,-91.93032 1.53818,-1.14555 1.28182,7.44607 -0.76909,21.76544 -6.4091,44.39002 -3.58911,67.58739 13.58728,108.82716 7.17821,16.89686 8.71638,22.91099 6.40911,25.48848 -4.61456,5.15496 -3.84546,9.45077 0.7691,5.15496 5.12728,-4.86858 6.40909,-2.86386 30.76367,49.25862 15.12548,32.93454 17.69455,53.58203 15.90001,57.59146 -2.30728,4.2958 -1.54362,-6.61452 -2.31272,-13.7742 z"
       id="path3772"
       inkscape:connector-curvature="0"
       sodipodi:nodetypes="ccsccccccccccscccc" />
    <path
       d="m 570.03375,454.93257 c -1.28181,-7.44606 7.90384,0.10974 3.76942,-2.812 l -7.71263,2.71158 -29.77381,-63.65746 c -12.56183,-26.9204 -23.07275,-49.83139 -23.07275,-50.97694 0,-0.85916 6.92183,-9.16439 15.12546,-18.0424 l 15.12548,-16.32407 15.38185,26.63402 c 18.20185,31.5026 20.50912,36.37118 37.94187,80.76121 14.35638,36.37118 14.35638,36.37118 -0.76908,39.52145 -7.17821,1.71832 -24.47762,9.05792 -26.01581,2.18461 z"
       id="path3774"
       inkscape:connector-curvature="0"
       sodipodi:nodetypes="ccccscccccc" />
    <path
       inkscape:connector-curvature="0"
       d="m 223.80899,447.02022 c 0.7691,-9.1644 -0.25637,-12.60105 -2.82,-10.88272 -4.10183,2.86386 -2.82001,-2.2911 2.56363,-10.02356 2.82001,-4.00942 5.12728,-8.30524 5.12728,-10.02355 0,-1.43194 2.30728,-7.15969 5.12729,-12.31466 l 5.38364,-9.73716 5.38364,7.73245 c 5.38364,7.73245 13.84366,8.878 25.89277,2.86388 6.66546,-3.15027 5.38364,2.29108 -4.10182,16.32407 -5.12728,7.44606 -11.53639,13.4602 -16.66367,15.17853 -4.61454,1.43194 -8.20364,4.00941 -8.20364,5.72774 0,2.86387 -11.53638,10.02355 -16.15094,10.02355 -1.02545,0 -1.79455,-2.2911 -1.53818,-4.86857 z"
       id="path3776" />
    <path
       inkscape:connector-curvature="0"
       d="m 267.1345,446.16105 c 0,-1.71832 1.79455,-3.72304 3.84548,-4.5822 2.05091,-1.14555 3.84545,-4.58219 3.84545,-8.30523 0,-5.72774 6.92183,-15.75131 11.02365,-15.75131 3.33273,0 1.79455,4.86859 -6.15273,18.04241 -7.43456,12.88743 -12.56185,16.89685 -12.56185,10.59633 z"
       id="path3778" />
    <path
       inkscape:connector-curvature="0"
       d="m 194.32712,443.58356 c -0.76908,-1.43193 0.25637,-4.00942 2.56365,-6.01412 2.05091,-2.00472 10.25456,-13.7466 17.94548,-26.34764 7.94729,-12.31466 14.61275,-22.33821 15.12548,-22.33821 3.58909,0 -15.89457,40.09422 -23.07276,47.82668 -9.48547,10.30995 -10.51094,10.88272 -12.56185,6.87329 z"
       id="path3780" />
    <path
       inkscape:connector-curvature="0"
       d="m 285.08,409.78986 c 0,-7.44606 22.56003,-38.94867 32.04549,-44.39003 4.87092,-3.15025 4.87092,-3.15025 0,5.15498 -17.94548,31.21621 -22.81639,38.0895 -27.17458,39.23505 -2.56364,0.85916 -4.87091,0.85916 -4.87091,0 z"
       id="path3782" />
    <path
       inkscape:connector-curvature="0"
       d="m 249.44539,391.17469 c -1.79455,-6.01413 0.25636,-20.04711 6.92183,-46.39475 l 2.05091,-8.30523 4.61456,8.01885 c 2.56363,4.29581 11.28002,11.1691 19.74002,15.46492 l 15.38184,7.73245 -18.71456,14.89214 c -20.50912,16.32407 -26.66187,18.0424 -29.9946,8.59162 z"
       id="path3784" />
    <path
       inkscape:connector-curvature="0"
       d="m 335.5837,360.81764 c -14.10001,-13.7466 -26.40549,-27.49319 -27.94367,-30.35705 -2.05091,-4.00943 -0.51273,-7.73247 7.94727,-18.3288 18.71458,-23.77013 40.24917,-62.14604 47.42736,-83.91148 3.84545,-11.74188 11.28001,-30.64343 16.40729,-42.38532 l 9.22911,-21.19266 7.17819,17.18325 c 5.64001,12.88743 9.9982,18.61517 17.17639,23.19737 5.38365,3.43664 11.53637,6.30052 13.5873,6.30052 2.05091,0 -5.64002,10.59633 -16.92003,23.77015 -32.55823,36.94395 -47.42735,75.60625 -48.4528,126.58318 -0.25636,13.46019 -0.51272,24.34291 -0.51272,24.34291 0,0 -11.28003,-11.45548 -25.12369,-25.20207 z"
       id="path3786" />
    <path
       inkscape:connector-curvature="0"
       d="m 287.64363,351.93963 c -17.94548,-10.88271 -27.68732,-25.20208 -20.50913,-30.35705 1.53819,-1.14555 2.30729,-4.00942 1.53819,-6.58691 -0.51272,-2.86388 1.53819,-11.16911 4.87092,-19.18795 l 5.89638,-14.31937 0.25636,12.31466 c 0.25636,16.03769 5.64001,27.2068 21.27821,45.24919 8.71638,10.02356 11.79275,15.46491 9.74184,16.89685 -2.82001,2.00471 -17.17639,-11.45549 -32.30187,-30.07067 -3.07637,-4.00941 -6.40911,-6.30051 -7.43455,-5.44135 -0.7691,1.14555 5.64,9.73717 14.35638,19.47434 16.66366,18.32878 17.17639,20.61988 2.30727,12.02826 z"
       id="path3788" />
    <path
       inkscape:connector-curvature="0"
       d="m 499.65668,310.69987 c -13.84366,-35.51203 -17.43275,-59.85496 -13.07457,-84.77064 l 1.79455,-9.16441 8.97275,16.61047 c 4.8709,9.16439 13.07456,22.33821 18.20184,29.49789 5.38364,7.15968 13.33093,18.90156 17.68911,26.06125 l 7.94729,13.17381 -14.61275,16.03769 c -8.20364,9.16439 -15.38183,16.32407 -16.40729,16.32407 -0.7691,0 -5.64001,-10.59633 -10.51093,-23.77013 z"
       id="path3790" />
    <path
       inkscape:connector-curvature="0"
       d="m 293.02727,306.69044 c -2.30727,-5.44137 -3.58909,-16.32407 -3.07636,-30.35705 0.25637,-7.73246 0.25637,-7.73246 6.66546,-3.15027 5.89638,4.29582 6.92183,4.29582 13.07457,-0.28638 12.04911,-8.59162 28.20004,-29.78428 34.8655,-45.2492 3.5891,-8.01884 8.46002,-24.91569 10.76729,-36.94396 4.10183,-22.62459 11.02366,-41.52615 17.43275,-47.54029 2.05093,-1.71832 8.20365,-4.2958 14.10003,-5.72774 l 10.51093,-2.57749 -11.28003,15.46492 c -13.07455,18.04239 -21.53457,35.7984 -31.02004,64.72353 -12.30547,38.37589 -31.27641,71.88321 -50.50371,88.78005 -8.20366,7.15969 -9.2291,7.44608 -11.53639,2.86388 z"
       id="path3792" />
    <path
       inkscape:connector-curvature="0"
       d="m 609.89321,276.61977 c -1.02546,-4.00942 -1.02546,-11.45549 -0.25637,-16.32408 1.28182,-7.15968 2.30728,-8.30523 5.12728,-5.72774 4.35819,4.00943 4.35819,10.02356 0,21.19266 l -3.33273,8.59162 -1.53818,-7.73246 z"
       id="path3794" />
    <path
       inkscape:connector-curvature="0"
       d="m 653.4751,273.18312 c -18.97094,-10.88271 -35.12189,-24.62931 -35.12189,-29.2115 0,-4.29581 29.9946,-35.51203 34.09642,-35.51203 1.79455,0 9.9982,7.15969 18.45822,15.75131 16.66366,16.89685 12.81819,18.0424 -6.92183,2.2911 -16.40731,-13.17382 -15.89457,-7.73247 1.79455,21.47905 17.43275,28.92511 13.33093,30.92983 -10.76729,4.86858 -18.45821,-19.76073 -24.61096,-23.48377 -17.43275,-10.59633 7.43455,12.88743 17.17639,23.48376 28.96912,31.21621 20.25277,13.46021 9.9982,13.17382 -13.07455,-0.28639 z"
       id="path3796" />
    <path
       inkscape:connector-curvature="0"
       d="m 297.1291,260.86847 c -2.82,-3.15025 -2.0509,-10.88272 1.79455,-16.61046 3.33274,-5.44137 3.84546,-5.15498 9.9982,1.43194 6.15273,6.5869 6.40909,7.44606 2.56364,12.02827 -4.10182,5.15496 -11.28001,6.87329 -14.35639,3.15025 z"
       id="path3798" />
    <path
       inkscape:connector-curvature="0"
       d="m 316.61277,239.38942 c -1.53819,-2.57748 1.79454,-7.73245 11.28002,-17.75601 7.43455,-7.73245 13.58728,-12.88743 13.58728,-11.45549 0,1.43194 -3.58909,9.45078 -7.69091,17.75601 -7.69093,14.89214 -12.56184,18.04241 -17.17639,11.45549 z"
       id="path3800" />
    <path
       inkscape:connector-curvature="0"
       d="m 610.6623,232.80252 c 0,-3.72304 28.20004,-33.22093 30.50732,-31.78899 1.28181,1.14555 -4.35819,8.878 -12.30547,17.46962 -13.58729,14.60575 -18.20185,18.04241 -18.20185,14.31937 z"
       id="path3802" />
    <path
       inkscape:connector-curvature="0"
       d="m 601.94592,219.6287 c -1.79454,-5.44135 -6.15274,-19.47434 -9.2291,-31.21622 -8.46001,-31.78899 -19.9964,-64.43713 -25.89276,-72.45598 -4.87092,-7.44607 -4.87092,-7.44607 0.25636,-9.16439 12.81819,-4.5822 21.02185,10.02355 24.35458,42.95809 1.79455,16.32407 6.66547,27.20679 12.56183,27.20679 4.61456,0 29.9946,18.3288 29.2255,21.47905 -0.51272,1.43194 -6.66546,9.16439 -14.10002,16.89686 l -13.33093,13.74658 -3.84546,-9.45078 z"
       id="path3804" />
    <path
       inkscape:connector-curvature="0"
       d="m 300.20548,208.1732 c -4.10184,-9.73716 -7.43457,-18.04239 -6.92183,-18.61517 0.51272,-0.57277 9.74182,-2.00471 20.25275,-2.86387 17.68911,-1.71833 19.48366,-2.57748 28.45641,-12.88742 l 9.48546,-11.16911 -3.33273,12.88742 c -5.64001,20.61989 -27.43095,50.11779 -37.42914,50.11779 -1.28182,0 -6.15274,-7.73247 -10.51092,-17.46964 z"
       id="path3806" />
    <path
       inkscape:connector-curvature="0"
       d="m 420.95292,197.57688 c -5.89637,-2.00472 -19.2273,-20.04711 -16.92001,-22.6246 0.51272,-0.85915 5.38364,0 11.02364,1.71832 15.89457,5.15498 47.17098,3.72304 65.37283,-2.57747 8.71638,-3.15027 16.66365,-5.72776 17.43275,-5.72776 0.76909,0.28639 -10.51092,6.58691 -24.86732,14.31937 -26.91821,14.60575 -40.76187,18.61517 -52.04189,14.89214 z"
       id="path3808" />
    <path
       inkscape:connector-curvature="0"
       d="m 611.43139,170.94286 c -9.99819,-7.73245 -11.02365,-9.73716 -11.02365,-20.90627 0,-6.8733 -1.53819,-18.32878 -3.5891,-25.48847 -2.05091,-7.73246 -2.56363,-13.4602 -1.28182,-13.4602 7.69093,0 18.20185,23.48375 29.48186,65.2963 1.28183,5.15497 -1.79455,4.00942 -13.58729,-5.44136 z"
       id="path3810" />
    <path
       inkscape:connector-curvature="0"
       d="m 276.10726,163.4968 c -12.56185,-14.89215 -12.81821,-16.61047 -8.71638,-37.23036 2.30727,-11.1691 2.05091,-16.61046 -1.02546,-28.925114 -4.3582,-15.751301 -2.05091,-32.075377 4.10182,-32.075377 1.79455,0 12.56185,-1.145549 24.35458,-2.863873 22.81641,-2.863873 27.68731,-2.00471 31.27641,5.441359 1.79456,4.29581 1.28182,4.868584 -4.87091,3.723034 -9.48547,-1.431936 -18.20185,3.723036 -18.20185,10.882718 0,3.15026 4.61456,10.882718 10.51093,17.469624 7.94729,8.878009 9.74183,12.887429 8.46001,17.469629 -3.07637,11.1691 -1.28182,27.49317 4.10182,39.52144 3.07637,6.58692 4.87092,12.60104 4.10183,13.7466 -2.05091,2.00471 -23.58549,6.01412 -34.35278,6.01412 -6.66547,0.28639 -10.51092,-2.2911 -19.74002,-13.1738 z"
       id="path3812" />
    <path
       inkscape:connector-curvature="0"
       d="m 420.18383,167.21982 c -24.09822,-7.44606 -24.61094,-17.18323 -2.56364,-32.36176 18.45821,-12.60104 27.43095,-15.17852 54.60554,-15.17852 l 24.8673,0 -1.28181,16.61046 c -1.28182,18.90156 -3.58909,22.05182 -22.30367,27.77956 -19.9964,6.30053 -39.73642,7.44608 -53.32372,3.15026 z"
       id="path3814" />
    <path
       inkscape:connector-curvature="0"
       d="m 508.1167,162.92402 c 0,-4.00943 16.92002,-14.89214 26.91821,-17.46963 6.15274,-1.43194 9.74184,-1.14555 11.53639,1.43194 2.05091,2.86387 -1.53819,5.44136 -15.38185,11.1691 -19.74002,8.01884 -23.07275,8.87801 -23.07275,4.86859 z"
       id="path3816" />
    <path
       inkscape:connector-curvature="0"
       d="m 334.04552,152.61408 c -5.38364,-8.87802 -5.64001,-11.74188 -4.10182,-29.21151 l 1.79455,-19.47434 -10.51093,-9.450777 c -5.89638,-5.154972 -9.9982,-10.59633 -9.22911,-12.028266 0.7691,-1.145549 5.38364,-2.863873 10.51092,-3.436648 10.25457,-1.431937 14.86912,4.009422 24.09822,27.493181 5.38365,12.88743 5.38365,14.03298 -1.53818,49.83139 -1.53817,8.59161 -3.84546,8.01884 -11.02365,-3.72303 z"
       id="path3818" />
    <path
       inkscape:connector-curvature="0"
       d="m 245.34357,148.03188 c -3.58909,-5.15498 -6.15274,-10.88272 -5.38364,-13.17382 1.02545,-2.2911 1.53818,-5.44135 1.53818,-7.15968 0,-5.15497 8.71638,5.15496 15.12547,17.75601 5.64002,11.1691 5.64002,11.45549 0.7691,11.45549 -2.82001,0 -8.20365,-4.00941 -12.04911,-8.878 z"
       id="path3820" />
    <path
       inkscape:connector-curvature="0"
       d="m 565.7986,149.17743 c -4.10182,-2.57749 -12.30548,-9.16439 -17.94548,-15.17853 -5.89638,-5.72774 -15.89457,-12.31465 -22.56003,-14.31936 -13.5873,-4.5822 -15.12548,-7.15969 -5.38365,-9.73717 13.07456,-3.72304 28.71277,1.14555 36.91642,11.45549 6.4091,8.30523 19.48366,32.93453 17.43275,32.64814 -0.51272,-0.28638 -4.10182,-2.29108 -8.46001,-4.86857 z"
       id="path3822" />
    <path
       inkscape:connector-curvature="0"
       d="m 505.55305,137.14916 c 0,-5.72774 1.02546,-11.74188 2.05091,-13.74659 2.30728,-4.00942 13.07457,-1.71832 20.25276,4.29581 5.12728,4.86858 5.12728,4.86858 -8.46001,12.31466 l -13.84366,7.44606 0,-10.30994 z"
       id="path3824" />
    <path
       inkscape:connector-curvature="0"
       d="m 245.8563,117.10205 c -8.46002,-10.59633 -14.61275,-26.347632 -14.61275,-38.375898 0,-25.774856 39.22369,-54.127198 68.70555,-49.545002 13.84366,2.004711 22.30367,8.018845 30.76369,21.765435 8.46001,14.032976 6.92182,16.037687 -4.61456,5.727745 -8.71638,-7.732456 -10.76729,-8.591619 -15.89457,-5.441359 -3.07636,2.004711 -14.35638,4.29581 -24.8673,5.441359 -27.17459,3.15026 -29.2255,6.30052 -26.91823,43.53087 1.28182,18.61517 0.7691,28.06596 -0.76909,28.06596 -1.53818,0 -6.92183,-5.15498 -11.79274,-11.16911 z"
       id="path3826" />
    <path
       inkscape:connector-curvature="0"
       d="m 494.01668,112.51985 c -1.28183,-0.57277 -8.20366,-2.00471 -15.38185,-3.15026 l -12.81821,-2.00471 10.25457,-2.2911 c 5.64,-1.14555 14.61275,-2.29109 19.9964,-2.29109 8.97273,-0.28639 9.2291,0 6.40909,5.44135 -3.33272,5.72775 -3.84546,6.01414 -8.46,4.29581 z"
       id="path3828" />
  </g>
</svg>
